<svg xmlns="http://www.w3.org/2000/svg" width="502.733" height="504.523" viewBox="0 0 471.31202 472.99046"><path d="M218.156 472.371c-47.251-3.456-91.525-20.813-129.5-50.766-10.129-7.99-28.6-26.32-36.443-36.168-28.427-35.689-45.493-76.242-51.13-121.5-1.444-11.594-1.444-43.406 0-55 6.825-54.796 30.689-103.42 69.237-141.073 24.305-23.741 47.875-39.168 78.836-51.6 42.823-17.194 94.805-21 140-10.248 43.797 10.419 79.266 30.034 111.836 61.848 38.548 37.653 62.412 86.277 69.237 141.073 1.444 11.594 1.444 43.406 0 55-8.55 68.655-44.92 128.925-101.256 167.8-43.366 29.926-97.57 44.53-150.817 40.634zm55-15.768c23.296-4.373 41.077-10.168 60.5-19.717a223.197 223.197 0 0 0 122.97-171.75c1.963-15.146 1.963-42.251 0-57.398-11.754-90.716-78.225-165.718-166.392-187.746-20.97-5.24-28.032-6.018-54.578-6.018-26.545 0-33.609.779-54.578 6.018-73.29 18.311-133.958 74.99-157.285 146.945-12.231 37.727-14.119 82.447-5.086 120.5 15.546 65.494 58.848 119.898 118.949 149.449 23.67 11.638 43.536 17.375 76 21.95 1.65.233 13.35.27 26 .08 17.508-.26 25.507-.813 33.5-2.313zm-41-115.411v-71.246l-40.291 40.282-40.291 40.282-2.18-2.32-2.18-2.32 42.471-42.462 42.471-42.462v-92l-40.291 40.282-40.291 40.282-2.18-2.32-2.18-2.32 42.471-42.462 42.471-42.462v-92l-40.488 40.48-40.489 40.479-2.245-2.246-2.246-2.245 44.481-44.49 44.481-44.49 44.489 44.489 44.488 44.488-2.247 2.247-2.247 2.247-40.489-40.48-40.488-40.479v92l42.47 42.462 42.472 42.462-2.18 2.32-2.18 2.32-40.29-40.282-40.292-40.282v92l42.47 42.462 42.472 42.462-2.18 2.32-2.18 2.32-40.29-40.282-40.292-40.282v142.491h-7v-71.245z" fill="#fff"/></svg>